HIERARCHY
ROOT Hips
{
 OFFSET 0.000000 0.000000 0.000000
 CHANNELS 6 Xposition Yposition Zposition Yrotation Xrotation Zrotation
 JOINT Chest
 {
  OFFSET 0.000000 9.585900 0.002600
  CHANNELS 3 Yrotation Xrotation Zrotation
  JOINT Chest2
  {
   OFFSET 0.000000 9.601200 -0.005300
   CHANNELS 3 Yrotation Xrotation Zrotation
   JOINT Chest3
   {
    OFFSET 0.000000 9.561800 0.000000
    CHANNELS 3 Yrotation Xrotation Zrotation
    JOINT Chest4
    {
     OFFSET 0.000000 9.552100 0.000000
     CHANNELS 3 Yrotation Xrotation Zrotation
     JOINT Neck
     {
      OFFSET 0.000000 14.453000 0.000000
      CHANNELS 3 Yrotation Xrotation Zrotation
      JOINT Head
      {
       OFFSET 0.000000 8.936500 -0.011300
       CHANNELS 3 Yrotation Xrotation Zrotation
       End Site
       {
        OFFSET 0.000000 17.073600 -0.006000
       }
      }
     }
     JOINT RightCollar
     {
      OFFSET -2.921100 9.558500 0.000000
      CHANNELS 3 Yrotation Xrotation Zrotation
      JOINT RightShoulder
      {
       OFFSET -13.519700 0.000000 0.000000
       CHANNELS 3 Yrotation Xrotation Zrotation
       JOINT RightElbow
       {
        OFFSET 0.000000 -29.696600 0.000000
        CHANNELS 3 Yrotation Xrotation Zrotation
        JOINT RightWrist
        {
         OFFSET 0.000000 -24.004700 0.000000
         CHANNELS 3 Yrotation Xrotation Zrotation
         End Site
         {
          OFFSET 0.000000 -17.728500 0.000000
         }
        }
       }
      }
     }
     JOINT LeftCollar
     {
      OFFSET 2.921100 9.558500 0.000000
      CHANNELS 3 Yrotation Xrotation Zrotation
      JOINT LeftShoulder
      {
       OFFSET 13.519700 0.000000 0.000000
       CHANNELS 3 Yrotation Xrotation Zrotation
       JOINT LeftElbow
       {
        OFFSET 0.000000 -29.696600 0.000000
        CHANNELS 3 Yrotation Xrotation Zrotation
        JOINT LeftWrist
        {
         OFFSET 0.000000 -24.004700 0.000000
         CHANNELS 3 Yrotation Xrotation Zrotation
         End Site
         {
          OFFSET 0.000000 -17.728500 0.000000
         }
        }
       }
      }
     }
    }
   }
  }
 }
 JOINT RightHip
 {
  OFFSET -7.771700 -0.012900 -0.001300
  CHANNELS 3 Yrotation Xrotation Zrotation
  JOINT RightKnee
  {
   OFFSET 0.000000 -40.869800 0.001200
   CHANNELS 3 Yrotation Xrotation Zrotation
   JOINT RightAnkle
   {
    OFFSET 0.000000 -39.717900 0.002100
    CHANNELS 3 Yrotation Xrotation Zrotation
    JOINT RightToe
    {
     OFFSET 0.000000 -4.965400 11.033500
     CHANNELS 3 Yrotation Xrotation Zrotation
     End Site
     {
      OFFSET 0.000000 -1.423100 5.872300
     }
    }
   }
  }
 }
 JOINT LeftHip
 {
  OFFSET 7.771700 -0.012900 -0.001300
  CHANNELS 3 Yrotation Xrotation Zrotation
  JOINT LeftKnee
  {
   OFFSET 0.000000 -40.869800 0.001200
   CHANNELS 3 Yrotation Xrotation Zrotation
   JOINT LeftAnkle
   {
    OFFSET 0.000000 -39.717900 0.002100
    CHANNELS 3 Yrotation Xrotation Zrotation
    JOINT LeftToe
    {
     OFFSET 0.000000 -4.965400 11.033500
     CHANNELS 3 Yrotation Xrotation Zrotation
     End Site
     {
      OFFSET 0.000000 -1.423100 5.872300
     }
    }
   }
  }
 }
}
MOTION
Frames: 5
Frame Time: 0.008333
-44.377104 56.260780 -11.816101 -178.040292 -12.398790 -0.184627 -0.087807 15.028154 -0.516588 0.008374 1.388646 0.018037 0.016446 2.338623 0.030435 0.118520 13.488037 0.183687 1.255764 12.003792 4.372261 0.332377 -13.033557 4.365916 0.838712 0.016371 1.225636 -1.385034 -8.712637 -6.272990 -90.748959 -56.636011 122.770619 -13.519013 3.295799 -4.357868 -6.494692 -2.252584 1.780926 4.769326 -11.428056 6.216602 66.078692 -47.640286 -108.997678 11.016357 -4.262448 8.505304 -2.623337 -62.948362 11.077854 -30.390877 85.595808 -34.432569 -8.910389 -18.441318 12.472079 0.207170 -0.427328 0.079870 18.494839 -57.127845 -22.005320 68.723920 71.503043 69.623244 -7.062100 -15.106174 1.046282 0.315985 0.860232 0.138532
-44.377603 56.259997 -11.816425 -178.036637 -12.400530 -0.188856 -0.080898 15.033571 -0.515488 0.008864 1.389765 0.017875 0.011440 2.335848 0.032125 0.127145 13.493051 0.178146 1.253693 12.002599 4.375225 0.324529 -13.037327 4.370251 0.820328 0.003187 1.228044 -1.364115 -8.703350 -6.266431 -90.733243 -56.638306 122.752203 -13.512661 3.286856 -4.355916 -6.505932 -2.257313 1.796211 4.770068 -11.428193 6.216797 66.061344 -47.650297 -108.991451 11.023350 -4.267633 8.505413 -2.631287 -62.946133 11.082204 -30.411409 85.589520 -34.451003 -8.903527 -18.415006 12.471530 0.209024 -0.440400 0.079354 18.486732 -57.131235 -22.000458 68.736636 71.503415 69.635647 -7.062135 -15.100494 1.046265 0.313327 0.855696 0.139313
-44.377919 56.259494 -11.817831 -178.033193 -12.409505 -0.194235 -0.075231 15.046691 -0.512717 0.012064 1.392118 0.016595 0.012366 2.336563 0.032256 0.131544 13.498752 0.176483 1.247282 11.997157 4.377458 0.317890 -13.042352 4.371089 0.805709 -0.012275 1.233170 -1.362711 -8.701007 -6.260606 -90.710092 -56.642913 122.739546 -13.507606 3.283228 -4.355402 -6.518500 -2.271566 1.817705 4.773113 -11.420351 6.212429 66.039528 -47.663602 -108.997438 11.024448 -4.264521 8.506100 -2.640883 -62.936283 11.089164 -30.405888 85.586341 -34.446136 -8.894560 -18.388396 12.473500 0.209978 -0.455821 0.077376 18.474940 -57.126196 -21.990982 68.742624 71.508598 69.646228 -7.060979 -15.100004 1.040399 0.316244 0.854634 0.143570
-44.379487 56.258640 -11.817353 -178.026196 -12.407484 -0.192362 -0.079311 15.047206 -0.517994 0.011639 1.392022 0.017415 0.023361 2.346060 0.026545 0.142425 13.509410 0.174113 1.237439 11.988727 4.376948 0.307189 -13.053321 4.381021 0.783095 -0.040075 1.241346 -1.352252 -8.698178 -6.257037 -90.704996 -56.645532 122.734050 -13.504755 3.291496 -4.347786 -6.531113 -2.296730 1.852996 4.763177 -11.413943 6.198306 66.040790 -47.664348 -108.999468 11.017610 -4.251387 8.502019 -2.642120 -62.939320 11.084996 -30.486580 85.579975 -34.533587 -8.882489 -18.358799 12.482458 0.204687 -0.462429 0.074513 18.477926 -57.127451 -22.003188 68.729235 71.514323 69.631991 -7.046260 -15.096069 1.043921 0.309283 0.854578 0.141762
-44.379873 56.257994 -11.817524 -178.034064 -12.409094 -0.194450 -0.069858 15.049402 -0.514756 0.012598 1.393090 0.016514 0.028252 2.349984 0.023645 0.142158 13.509485 0.176023 1.235505 11.987151 4.376798 0.305138 -13.054920 4.381351 0.779647 -0.053502 1.236839 -1.336250 -8.690595 -6.252959 -90.718476 -56.648920 122.741979 -13.501992 3.300750 -4.342852 -6.529369 -2.303820 1.861952 4.753648 -11.413909 6.201099 66.022132 -47.668576 -108.994144 11.014798 -4.253342 8.499809 -2.643130 -62.938702 11.097313 -30.548478 85.570097 -34.597776 -8.886151 -18.323012 12.490024 0.218658 -0.443124 0.077930 18.482572 -57.126833 -22.000959 68.729783 71.518332 69.635069 -7.036287 -15.099246 1.043749 0.305669 0.857003 0.140387
